<?xml version="1.0" encoding="UTF-8"?>
<!DOCTYPE svg PUBLIC "-//W3C//DTD SVG 1.1//EN" "http://www.w3.org/Graphics/SVG/1.1/DTD/svg11.dtd">
<!-- Creator: CorelDRAW X5 -->
<svg xmlns="http://www.w3.org/2000/svg" xml:space="preserve" width="9in" height="9in" style="shape-rendering:geometricPrecision; text-rendering:geometricPrecision; image-rendering:optimizeQuality; fill-rule:evenodd; clip-rule:evenodd"
viewBox="0 0 9000 9000"
 xmlns:xlink="http://www.w3.org/1999/xlink">
 <defs>
  <style type="text/css">
   <![CDATA[
    .fil0 {fill:#373435;fill-rule:nonzero}
   ]]>
  </style>
 </defs>
 <g id="Layer_x0020_1">
  <metadata id="CorelCorpID_0Corel-Layer"/>
  <polygon class="fil0" points="933,1212 933,1137 1241,1137 1241,1212 1134,1212 1134,1549 1241,1549 1241,1625 933,1625 933,1549 1041,1549 1041,1212 "/>
  <polygon id="1" class="fil0" points="1659,1214 1659,1625 1565,1625 1565,1214 1432,1214 1432,1137 1793,1137 1793,1214 "/>
  <path id="12" class="fil0" d="M2316 1292c0,25 -4,49 -13,70 -8,22 -21,40 -38,56 -17,16 -37,28 -62,37 -25,9 -54,13 -87,13l-47 0 0 157 -92 0 0 -487 143 0c32,0 59,3 84,10 24,7 45,17 61,30 17,13 29,29 38,49 9,19 13,41 13,66zm-96 6c0,-13 -2,-25 -6,-35 -4,-11 -10,-20 -19,-27 -8,-7 -19,-13 -32,-17 -13,-4 -28,-6 -45,-6l-48 0 0 179 51 0c16,0 30,-2 42,-6 12,-4 23,-11 31,-19 8,-8 15,-18 19,-30 4,-11 6,-24 6,-38z"/>
  <polygon id="123" class="fil0" points="2508,1212 2508,1137 2816,1137 2816,1212 2709,1212 2709,1549 2816,1549 2816,1625 2508,1625 2508,1549 2616,1549 2616,1212 "/>
  <path id="1234" class="fil0" d="M3358 1477c0,27 -5,50 -15,69 -10,20 -24,36 -41,49 -18,13 -39,22 -63,29 -24,6 -51,9 -80,9 -26,0 -50,-1 -74,-4 -24,-3 -47,-8 -71,-15l0 -91c11,4 23,8 36,11 12,3 25,6 38,9 12,3 25,5 37,6 12,2 25,2 36,2 17,0 32,-2 44,-4 12,-3 22,-7 30,-12 8,-5 13,-11 17,-19 4,-7 5,-15 5,-24 0,-12 -3,-22 -10,-30 -7,-8 -16,-15 -27,-21 -11,-6 -24,-12 -38,-17 -14,-5 -29,-10 -44,-16 -15,-6 -29,-12 -44,-19 -14,-7 -27,-16 -38,-27 -11,-11 -20,-23 -27,-38 -7,-15 -10,-33 -10,-53 0,-19 4,-37 10,-54 7,-17 18,-32 33,-45 15,-13 34,-23 57,-31 23,-8 52,-11 85,-11 10,0 20,1 30,1 11,1 21,2 31,3 10,1 20,3 30,5 10,2 18,4 26,6l0 84c-8,-3 -17,-6 -26,-8 -9,-2 -19,-5 -29,-6 -10,-2 -20,-3 -30,-4 -10,-1 -20,-1 -29,-1 -16,0 -30,1 -41,4 -11,3 -20,6 -28,11 -7,5 -12,10 -16,17 -3,7 -5,14 -5,22 0,10 3,19 10,26 7,7 16,14 27,20 11,6 24,11 38,16 14,5 29,11 44,16 15,6 30,12 44,20 14,7 27,17 38,27 11,11 20,23 27,38 7,15 10,32 10,52z"/>
  <path id="12345" class="fil0" d="M3796 1625l-69 -157c-6,-15 -16,-26 -27,-34 -12,-8 -25,-11 -41,-11l-17 0 0 202 -92 0 0 -487 142 0c27,0 51,2 73,7 22,5 41,12 56,23 15,11 27,25 36,42 8,17 12,38 12,63 0,18 -3,34 -8,48 -5,14 -12,26 -22,36 -9,10 -21,18 -34,24 -13,6 -27,11 -43,13 12,2 23,9 33,20 10,11 20,27 30,48l78 163 -108 0zm-23 -344c0,-24 -8,-41 -23,-51 -15,-11 -38,-16 -68,-16l-40 0 0 138 37 0c14,0 27,-2 39,-5 12,-3 21,-7 30,-13 8,-6 15,-13 19,-22 4,-9 7,-19 7,-30z"/>
  <polygon id="123456" class="fil0" points="4285,1214 4285,1625 4190,1625 4190,1214 4057,1214 4057,1137 4418,1137 4418,1214 "/>
  <polygon id="1234567" class="fil0" points="4621,1625 4621,1137 4915,1137 4915,1215 4714,1215 4714,1336 4905,1336 4905,1412 4714,1412 4714,1547 4915,1547 4915,1625 "/>
  <polygon id="12345678" class="fil0" points="5354,1625 5223,1334 5196,1271 5196,1473 5196,1625 5113,1625 5113,1137 5225,1137 5358,1430 5382,1487 5382,1272 5382,1137 5465,1137 5465,1625 "/>
  <path id="123456789" class="fil0" d="M5920 1625l-27 -96 -170 0 -28 96 -91 0 144 -487 128 0 144 487 -101 0zm-111 -398l-64 227 128 0 -63 -227z"/>
  <polygon id="12345678910" class="fil0" points="6420,1625 6420,1412 6255,1412 6255,1625 6163,1625 6163,1137 6255,1137 6255,1333 6420,1333 6420,1137 6512,1137 6512,1625 "/>
  <path id="1234567891011" class="fil0" d="M6970 1625l-27 -96 -170 0 -28 96 -91 0 144 -487 128 0 144 487 -101 0zm-111 -398l-64 227 128 0 -63 -227z"/>
  <polygon id="123456789101112" class="fil0" points="7251,1625 7251,1137 7344,1137 7344,1546 7550,1546 7550,1625 "/>
  <polygon id="12345678910111213" class="fil0" points="7864,1215 7864,1350 8049,1350 8049,1425 7864,1425 7864,1625 7771,1625 7771,1137 8059,1137 8059,1215 "/>
  <path id="1234567891011121314" class="fil0" d="M1040 2523c-50,-9 -87,-34 -112,-75 -25,-41 -37,-97 -37,-168 0,-44 5,-82 16,-114 10,-32 24,-59 43,-80 18,-21 39,-37 63,-47 24,-10 50,-16 78,-16 64,0 112,21 145,63 32,42 48,103 48,183 0,38 -4,72 -11,101 -8,29 -19,54 -33,75 -14,21 -31,38 -50,50 -19,13 -40,21 -62,26 2,12 5,22 10,30 5,8 10,14 16,18 6,4 13,8 21,9 8,2 15,3 23,3 11,0 21,-2 32,-7 11,-4 20,-11 29,-19l42 63c-16,13 -33,23 -51,30 -19,7 -37,10 -56,10 -23,0 -44,-3 -63,-8 -19,-5 -34,-14 -47,-25 -13,-11 -23,-26 -30,-43 -7,-17 -11,-38 -12,-61zm147 -245c0,-58 -8,-101 -23,-129 -15,-28 -40,-43 -75,-43 -18,0 -33,4 -45,11 -13,7 -23,18 -31,32 -8,14 -14,32 -18,53 -4,21 -6,44 -6,71 0,57 8,100 23,129 16,29 41,43 76,43 18,0 33,-4 45,-11 13,-7 23,-18 31,-32 8,-14 14,-32 18,-52 4,-21 6,-45 6,-72z"/>
  <path id="123456789101112131415" class="fil0" d="M1790 2340c0,31 -4,58 -12,82 -8,23 -20,43 -36,59 -16,16 -35,28 -57,36 -22,8 -47,12 -75,12 -31,0 -58,-4 -81,-12 -22,-8 -40,-19 -54,-34 -14,-15 -24,-33 -30,-54 -6,-21 -9,-45 -9,-72l0 -323 92 0 0 318c0,16 1,31 4,44 3,13 8,23 15,32 7,9 16,16 27,20 11,4 24,7 40,7 15,0 28,-2 38,-6 10,-4 19,-10 26,-19 7,-9 12,-20 16,-33 4,-13 5,-30 5,-49l0 -314 92 0 0 308z"/>
  <path id="12345678910111213141516" class="fil0" d="M2244 2519l-27 -96 -170 0 -28 96 -91 0 144 -487 128 0 144 487 -101 0zm-111 -398l-64 227 128 0 -63 -227z"/>
  <path id="1234567891011121314151617" class="fil0" d="M2746 2519l-69 -157c-6,-15 -16,-26 -27,-34 -12,-8 -25,-11 -41,-11l-17 0 0 202 -92 0 0 -487 142 0c27,0 51,2 73,7 22,5 41,12 56,23 15,11 27,25 36,42 8,17 12,38 12,63 0,18 -3,34 -8,48 -5,14 -12,26 -22,36 -9,10 -21,18 -34,24 -13,6 -27,11 -43,13 12,2 23,9 33,20 10,11 20,27 30,48l78 163 -108 0zm-23 -344c0,-24 -8,-41 -23,-51 -15,-11 -38,-16 -68,-16l-40 0 0 138 37 0c14,0 27,-2 39,-5 12,-3 21,-7 30,-13 8,-6 15,-13 19,-22 4,-9 7,-19 7,-30z"/>
  <polygon id="123456789101112131415161718" class="fil0" points="3234,2108 3234,2519 3140,2519 3140,2108 3007,2108 3007,2032 3368,2032 3368,2108 "/>
  <polygon id="12345678910111213141516171819" class="fil0" points="3571,2519 3571,2032 3865,2032 3865,2109 3664,2109 3664,2230 3855,2230 3855,2306 3664,2306 3664,2442 3865,2442 3865,2519 "/>
  <path id="1234567891011121314151617181920" class="fil0" d="M4321 2519l-69 -157c-6,-15 -16,-26 -27,-34 -12,-8 -25,-11 -41,-11l-17 0 0 202 -92 0 0 -487 142 0c27,0 51,2 73,7 22,5 41,12 56,23 15,11 27,25 36,42 8,17 12,38 12,63 0,18 -3,34 -8,48 -5,14 -12,26 -22,36 -9,10 -21,18 -34,24 -13,6 -27,11 -43,13 12,2 23,9 33,20 10,11 20,27 30,48l78 163 -108 0zm-23 -344c0,-24 -8,-41 -23,-51 -15,-11 -38,-16 -68,-16l-40 0 0 138 37 0c14,0 27,-2 39,-5 12,-3 21,-7 30,-13 8,-6 15,-13 19,-22 4,-9 7,-19 7,-30z"/>
  <polygon id="123456789101112131415161718192021" class="fil0" points="4829,2519 4698,2228 4671,2166 4671,2368 4671,2519 4588,2519 4588,2032 4700,2032 4833,2325 4857,2382 4857,2166 4857,2032 4940,2032 4940,2519 "/>
  <polygon id="12345678910111213141516171819202122" class="fil0" points="5335,2108 5335,2519 5240,2519 5240,2108 5107,2108 5107,2032 5468,2032 5468,2108 "/>
  <polygon id="1234567891011121314151617181920212223" class="fil0" points="5983,2519 5875,2519 5827,2369 5810,2308 5793,2370 5745,2519 5642,2519 5615,2032 5696,2032 5707,2344 5710,2430 5732,2354 5786,2180 5844,2180 5901,2364 5919,2429 5920,2353 5933,2032 6011,2032 "/>
  <polygon id="123456789101112131415161718192021222324" class="fil0" points="6196,2519 6196,2032 6490,2032 6490,2109 6289,2109 6289,2230 6480,2230 6480,2306 6289,2306 6289,2442 6490,2442 6490,2519 "/>
  <polygon id="12345678910111213141516171819202122232425" class="fil0" points="6929,2519 6798,2228 6771,2166 6771,2368 6771,2519 6688,2519 6688,2032 6800,2032 6933,2325 6957,2382 6957,2166 6957,2032 7040,2032 7040,2519 "/>
  <polygon id="1234567891011121314151617181920212223242526" class="fil0" points="7435,2108 7435,2519 7341,2519 7341,2108 7207,2108 7207,2032 7568,2032 7568,2108 "/>
  <polygon id="123456789101112131415161718192021222324252627" class="fil0" points="7958,2347 7958,2519 7865,2519 7865,2347 7706,2032 7808,2032 7880,2182 7913,2256 7945,2180 8020,2032 8118,2032 "/>
  <polygon id="12345678910111213141516171819202122232425262728" class="fil0" points="1302,3004 1302,3139 1486,3139 1486,3214 1302,3214 1302,3414 1209,3414 1209,2926 1497,2926 1497,3004 "/>
  <polygon id="1234567891011121314151617181920212223242526272829" class="fil0" points="1721,3001 1721,2926 2029,2926 2029,3001 1922,3001 1922,3338 2029,3338 2029,3414 1721,3414 1721,3338 1828,3338 1828,3001 "/>
  <polygon id="123456789101112131415161718192021222324252627282930" class="fil0" points="2460,3414 2339,3414 2190,2926 2294,2926 2376,3220 2403,3316 2431,3214 2512,2926 2610,2926 "/>
  <polygon id="12345678910111213141516171819202122232425262728293031" class="fil0" points="2784,3414 2784,2926 3077,2926 3077,3004 2877,3004 2877,3125 3068,3125 3068,3201 2877,3201 2877,3336 3077,3336 3077,3414 "/>
  <path id="1234567891011121314151617181920212223242526272829303132" class="fil0" d="M3557 3414l-27 -96 -170 0 -28 96 -91 0 144 -487 128 0 144 487 -101 0zm-111 -398l-64 227 128 0 -63 -227z"/>
  <polygon id="123456789101112131415161718192021222324252627282930313233" class="fil0" points="4087,3414 4078,3138 4075,3028 4051,3103 3997,3269 3940,3269 3891,3103 3871,3028 3868,3136 3860,3414 3782,3414 3806,2926 3909,2926 3952,3065 3973,3143 3993,3069 4038,2926 4144,2926 4168,3414 "/>
  <polygon id="12345678910111213141516171819202122232425262728293031323334" class="fil0" points="4346,3001 4346,2926 4654,2926 4654,3001 4547,3001 4547,3338 4654,3338 4654,3414 4346,3414 4346,3338 4453,3338 4453,3001 "/>
  <polygon id="1234567891011121314151617181920212223242526272829303132333435" class="fil0" points="5091,3414 4961,3123 4934,3060 4934,3262 4934,3414 4850,3414 4850,2926 4963,2926 5096,3219 5119,3276 5119,3061 5119,2926 5203,2926 5203,3414 "/>
  <path id="123456789101112131415161718192021222324252627282930313233343536" class="fil0" d="M5728 3234c0,31 -4,58 -12,82 -8,23 -20,43 -36,59 -16,16 -35,28 -57,36 -22,8 -47,12 -75,12 -31,0 -58,-4 -81,-12 -22,-8 -40,-19 -54,-34 -14,-15 -24,-33 -30,-54 -6,-21 -9,-45 -9,-72l0 -323 92 0 0 318c0,16 1,31 4,44 3,13 8,23 15,32 7,9 16,16 27,20 11,4 24,7 40,7 15,0 28,-2 38,-6 10,-4 19,-10 26,-19 7,-9 12,-20 16,-33 4,-13 5,-30 5,-49l0 -314 92 0 0 308z"/>
  <polygon id="12345678910111213141516171819202122232425262728293031323334353637" class="fil0" points="6122,3003 6122,3414 6028,3414 6028,3003 5894,3003 5894,2926 6256,2926 6256,3003 "/>
  <polygon id="1234567891011121314151617181920212223242526272829303132333435363738" class="fil0" points="6459,3414 6459,2926 6752,2926 6752,3004 6552,3004 6552,3125 6743,3125 6743,3201 6552,3201 6552,3336 6752,3336 6752,3414 "/>
  <path id="123456789101112131415161718192021222324252627282930313233343536373839" class="fil0" d="M7295 3266c0,27 -5,50 -15,69 -10,20 -24,36 -41,49 -18,13 -39,22 -63,29 -24,6 -51,9 -80,9 -26,0 -50,-1 -74,-4 -24,-3 -47,-8 -71,-15l0 -91c11,4 23,8 36,11 12,3 25,6 38,9 12,3 25,5 37,6 12,2 25,2 36,2 17,0 32,-2 44,-4 12,-3 22,-7 30,-12 8,-5 13,-11 17,-19 4,-7 5,-15 5,-24 0,-12 -3,-22 -10,-30 -7,-8 -16,-15 -27,-21 -11,-6 -24,-12 -38,-17 -14,-5 -29,-10 -44,-16 -15,-6 -29,-12 -44,-19 -14,-7 -27,-16 -38,-27 -11,-11 -20,-23 -27,-38 -7,-15 -10,-33 -10,-53 0,-19 4,-37 10,-54 7,-17 18,-32 33,-45 15,-13 34,-23 57,-31 23,-8 52,-11 85,-11 10,0 20,1 30,1 11,1 21,2 31,3 10,1 20,3 30,5 10,2 18,4 26,6l0 84c-8,-3 -17,-6 -26,-8 -9,-2 -19,-5 -29,-6 -10,-2 -20,-3 -30,-4 -10,-1 -20,-1 -29,-1 -16,0 -30,1 -41,4 -11,3 -20,6 -28,11 -7,5 -12,10 -16,17 -3,7 -5,14 -5,22 0,10 3,19 10,26 7,7 16,14 27,20 11,6 24,11 38,16 14,5 29,11 44,16 15,6 30,12 44,20 14,7 27,17 38,27 11,11 20,23 27,38 7,15 10,32 10,52z"/>
  <polygon id="12345678910111213141516171819202122232425262728293031323334353637383940" class="fil0" points="7711,3414 7589,3414 7440,2926 7544,2926 7627,3220 7653,3316 7681,3214 7762,2926 7860,2926 "/>
  <path id="1234567891011121314151617181920212223242526272829303132333435363738394041" class="fil0" d="M1004 3976c0,25 -4,49 -13,70 -8,22 -21,40 -38,56 -17,16 -37,28 -62,37 -25,9 -54,13 -87,13l-47 0 0 157 -92 0 0 -487 143 0c32,0 59,3 84,10 24,7 45,17 61,30 17,13 29,29 38,49 9,19 13,41 13,66zm-96 6c0,-13 -2,-25 -6,-35 -4,-11 -10,-20 -19,-27 -8,-7 -19,-13 -32,-17 -13,-4 -28,-6 -45,-6l-48 0 0 179 51 0c16,0 30,-2 42,-6 12,-4 23,-11 31,-19 8,-8 15,-18 19,-30 4,-11 6,-24 6,-38z"/>
  <path id="123456789101112131415161718192021222324252627282930313233343536373839404142" class="fil0" d="M1457 4308l-27 -96 -170 0 -28 96 -91 0 144 -487 128 0 144 487 -101 0zm-111 -398l-64 227 128 0 -63 -227z"/>
  <path id="12345678910111213141516171819202122232425262728293031323334353637383940414243" class="fil0" d="M2045 4161c0,27 -5,50 -15,69 -10,20 -24,36 -41,49 -18,13 -39,22 -63,29 -24,6 -51,9 -80,9 -26,0 -50,-1 -74,-4 -24,-3 -47,-8 -71,-15l0 -91c11,4 23,8 36,11 12,3 25,6 38,9 12,3 25,5 37,6 12,2 25,2 36,2 17,0 32,-2 44,-4 12,-3 22,-7 30,-12 8,-5 13,-11 17,-19 4,-7 5,-15 5,-24 0,-12 -3,-22 -10,-30 -7,-8 -16,-15 -27,-21 -11,-6 -24,-12 -38,-17 -14,-5 -29,-10 -44,-16 -15,-6 -29,-12 -44,-19 -14,-7 -27,-16 -38,-27 -11,-11 -20,-23 -27,-38 -7,-15 -10,-33 -10,-53 0,-19 4,-37 10,-54 7,-17 18,-32 33,-45 15,-13 34,-23 57,-31 23,-8 52,-11 85,-11 10,0 20,1 30,1 11,1 21,2 31,3 10,1 20,3 30,5 10,2 18,4 26,6l0 84c-8,-3 -17,-6 -26,-8 -9,-2 -19,-5 -29,-6 -10,-2 -20,-3 -30,-4 -10,-1 -20,-1 -29,-1 -16,0 -30,1 -41,4 -11,3 -20,6 -28,11 -7,5 -12,10 -16,17 -3,7 -5,14 -5,22 0,10 3,19 10,26 7,7 16,14 27,20 11,6 24,11 38,16 14,5 29,11 44,16 15,6 30,12 44,20 14,7 27,17 38,27 11,11 20,23 27,38 7,15 10,32 10,52z"/>
  <polygon id="1234567891011121314151617181920212223242526272829303132333435363738394041424344" class="fil0" points="2447,3897 2447,4308 2353,4308 2353,3897 2219,3897 2219,3821 2580,3821 2580,3897 "/>
  <path id="123456789101112131415161718192021222324252627282930313233343536373839404142434445" class="fil0" d="M3104 3976c0,25 -4,49 -13,70 -8,22 -21,40 -38,56 -17,16 -37,28 -62,37 -25,9 -54,13 -87,13l-47 0 0 157 -92 0 0 -487 143 0c32,0 59,3 84,10 24,7 45,17 61,30 17,13 29,29 38,49 9,19 13,41 13,66zm-96 6c0,-13 -2,-25 -6,-35 -4,-11 -10,-20 -19,-27 -8,-7 -19,-13 -32,-17 -13,-4 -28,-6 -45,-6l-48 0 0 179 51 0c16,0 30,-2 42,-6 12,-4 23,-11 31,-19 8,-8 15,-18 19,-30 4,-11 6,-24 6,-38z"/>
  <polygon id="12345678910111213141516171819202122232425262728293031323334353637383940414243444546" class="fil0" points="3497,3897 3497,4308 3403,4308 3403,3897 3269,3897 3269,3821 3630,3821 3630,3897 "/>
  <path id="1234567891011121314151617181920212223242526272829303132333435363738394041424344454647" class="fil0" d="M4171 4062c0,44 -5,83 -15,115 -10,32 -25,58 -43,79 -18,21 -39,36 -63,46 -24,10 -50,15 -78,15 -64,0 -112,-21 -145,-64 -32,-43 -49,-105 -49,-186 0,-44 5,-82 16,-114 10,-32 24,-58 43,-79 18,-21 39,-36 63,-46 24,-10 50,-15 78,-15 64,0 112,21 145,64 32,43 48,105 48,186zm-97 4c0,-58 -8,-101 -23,-129 -15,-28 -41,-43 -76,-43 -18,0 -33,4 -45,11 -12,7 -23,18 -31,32 -8,14 -14,32 -18,52 -4,21 -6,45 -6,71 0,58 8,101 23,129 16,28 41,43 76,43 18,0 33,-4 45,-11 13,-7 23,-18 31,-32 8,-14 14,-32 18,-52 4,-21 6,-45 6,-72z"/>
  <path id="123456789101112131415161718192021222324252627282930313233343536373839404142434445464748" class="fil0" d="M4678 4129c0,31 -4,58 -12,82 -8,23 -20,43 -36,59 -16,16 -35,28 -57,36 -22,8 -47,12 -75,12 -31,0 -58,-4 -81,-12 -22,-8 -40,-19 -54,-34 -14,-15 -24,-33 -30,-54 -6,-21 -9,-45 -9,-72l0 -323 92 0 0 318c0,16 1,31 4,44 3,13 8,23 15,32 7,9 16,16 27,20 11,4 24,7 40,7 15,0 28,-2 38,-6 10,-4 19,-10 26,-19 7,-9 12,-20 16,-33 4,-13 5,-30 5,-49l0 -314 92 0 0 308z"/>
  <path id="12345678910111213141516171819202122232425262728293031323334353637383940414243444546474849" class="fil0" d="M5221 4062c0,44 -5,83 -15,115 -10,32 -25,58 -43,79 -18,21 -39,36 -63,46 -24,10 -50,15 -78,15 -64,0 -112,-21 -145,-64 -32,-43 -49,-105 -49,-186 0,-44 5,-82 16,-114 10,-32 24,-58 43,-79 18,-21 39,-36 63,-46 24,-10 50,-15 78,-15 64,0 112,21 145,64 32,43 48,105 48,186zm-97 4c0,-58 -8,-101 -23,-129 -15,-28 -41,-43 -76,-43 -18,0 -33,4 -45,11 -12,7 -23,18 -31,32 -8,14 -14,32 -18,52 -4,21 -6,45 -6,71 0,58 8,101 23,129 16,28 41,43 76,43 18,0 33,-4 45,-11 13,-7 23,-18 31,-32 8,-14 14,-32 18,-52 4,-21 6,-45 6,-72z"/>
  <polygon id="1234567891011121314151617181920212223242526272829303132333435363738394041424344454647484950" class="fil0" points="5616,4308 5486,4017 5459,3955 5459,4157 5459,4308 5375,4308 5375,3821 5488,3821 5621,4114 5644,4171 5644,3955 5644,3821 5728,3821 5728,4308 "/>
  <polygon id="123456789101112131415161718192021222324252627282930313233343536373839404142434445464748495051" class="fil0" points="5934,4308 5934,3821 6227,3821 6227,3898 6027,3898 6027,4020 6218,4020 6218,4095 6027,4095 6027,4231 6227,4231 6227,4308 "/>
  <path id="12345678910111213141516171819202122232425262728293031323334353637383940414243444546474849505152" class="fil0" d="M6684 4308l-69 -157c-6,-15 -16,-26 -27,-34 -12,-8 -25,-11 -41,-11l-17 0 0 202 -92 0 0 -487 142 0c27,0 51,2 73,7 22,5 41,12 56,23 15,11 27,25 36,42 8,17 12,38 12,63 0,18 -3,34 -8,48 -5,14 -12,26 -22,36 -9,10 -21,18 -34,24 -13,6 -27,11 -43,13 12,2 23,9 33,20 10,11 20,27 30,48l78 163 -108 0zm-23 -344c0,-24 -8,-41 -23,-51 -15,-11 -38,-16 -68,-16l-40 0 0 138 37 0c14,0 27,-2 39,-5 12,-3 21,-7 30,-13 8,-6 15,-13 19,-22 4,-9 7,-19 7,-30z"/>
  <polygon id="1234567891011121314151617181920212223242526272829303132333435363738394041424344454647484950515253" class="fil0" points="7172,3897 7172,4308 7078,4308 7078,3897 6944,3897 6944,3821 7306,3821 7306,3897 "/>
  <polygon id="123456789101112131415161718192021222324252627282930313233343536373839404142434445464748495051525354" class="fil0" points="7820,4308 7713,4308 7665,4158 7647,4097 7630,4159 7583,4308 7480,4308 7452,3821 7533,3821 7545,4133 7548,4219 7570,4143 7624,3969 7681,3969 7738,4153 7756,4218 7758,4142 7770,3821 7848,3821 "/>
  <path id="12345678910111213141516171819202122232425262728293031323334353637383940414243444546474849505152535455" class="fil0" d="M8371 4062c0,44 -5,83 -15,115 -10,32 -25,58 -43,79 -18,21 -39,36 -63,46 -24,10 -50,15 -78,15 -64,0 -112,-21 -145,-64 -32,-43 -49,-105 -49,-186 0,-44 5,-82 16,-114 10,-32 24,-58 43,-79 18,-21 39,-36 63,-46 24,-10 50,-15 78,-15 64,0 112,21 145,64 32,43 48,105 48,186zm-97 4c0,-58 -8,-101 -23,-129 -15,-28 -41,-43 -76,-43 -18,0 -33,4 -45,11 -12,7 -23,18 -31,32 -8,14 -14,32 -18,52 -4,21 -6,45 -6,71 0,58 8,101 23,129 16,28 41,43 76,43 18,0 33,-4 45,-11 13,-7 23,-18 31,-32 8,-14 14,-32 18,-52 4,-21 6,-45 6,-72z"/>
  <polygon id="1234567891011121314151617181920212223242526272829303132333435363738394041424344454647484950515253545556" class="fil0" points="872,4792 872,5203 778,5203 778,4792 644,4792 644,4715 1005,4715 1005,4792 "/>
  <polygon id="123456789101112131415161718192021222324252627282930313233343536373839404142434445464748495051525354555657" class="fil0" points="1433,5203 1433,4991 1267,4991 1267,5203 1175,5203 1175,4715 1267,4715 1267,4911 1433,4911 1433,4715 1525,4715 1525,5203 "/>
  <path id="12345678910111213141516171819202122232425262728293031323334353637383940414243444546474849505152535455565758" class="fil0" d="M1959 5203l-69 -157c-6,-15 -16,-26 -27,-34 -12,-8 -25,-11 -41,-11l-17 0 0 202 -92 0 0 -487 142 0c27,0 51,2 73,7 22,5 41,12 56,23 15,11 27,25 36,42 8,17 12,38 12,63 0,18 -3,34 -8,48 -5,14 -12,26 -22,36 -9,10 -21,18 -34,24 -13,6 -27,11 -43,13 12,2 23,9 33,20 10,11 20,27 30,48l78 163 -108 0zm-23 -344c0,-24 -8,-41 -23,-51 -15,-11 -38,-16 -68,-16l-40 0 0 138 37 0c14,0 27,-2 39,-5 12,-3 21,-7 30,-13 8,-6 15,-13 19,-22 4,-9 7,-19 7,-30z"/>
  <polygon id="1234567891011121314151617181920212223242526272829303132333435363738394041424344454647484950515253545556575859" class="fil0" points="2259,5203 2259,4715 2552,4715 2552,4793 2352,4793 2352,4914 2543,4914 2543,4990 2352,4990 2352,5125 2552,5125 2552,5203 "/>
  <polygon id="123456789101112131415161718192021222324252627282930313233343536373839404142434445464748495051525354555657585960" class="fil0" points="2784,5203 2784,4715 3077,4715 3077,4793 2877,4793 2877,4914 3068,4914 3068,4990 2877,4990 2877,5125 3077,5125 3077,5203 "/>
  <polygon id="12345678910111213141516171819202122232425262728293031323334353637383940414243444546474849505152535455565758596061" class="fil0" points="3510,5203 3389,5203 3240,4715 3344,4715 3426,5009 3453,5105 3481,5003 3562,4715 3660,4715 "/>
  <polygon id="1234567891011121314151617181920212223242526272829303132333435363738394041424344454647484950515253545556575859606162" class="fil0" points="3927,4793 3927,4928 4111,4928 4111,5003 3927,5003 3927,5203 3834,5203 3834,4715 4122,4715 4122,4793 "/>
  <path id="123456789101112131415161718192021222324252627282930313233343536373839404142434445464748495051525354555657585960616263" class="fil0" d="M4696 4957c0,44 -5,83 -15,115 -10,32 -25,58 -43,79 -18,21 -39,36 -63,46 -24,10 -50,15 -78,15 -64,0 -112,-21 -145,-64 -32,-43 -49,-105 -49,-186 0,-44 5,-82 16,-114 10,-32 24,-58 43,-79 18,-21 39,-36 63,-46 24,-10 50,-15 78,-15 64,0 112,21 145,64 32,43 48,105 48,186zm-97 4c0,-58 -8,-101 -23,-129 -15,-28 -41,-43 -76,-43 -18,0 -33,4 -45,11 -12,7 -23,18 -31,32 -8,14 -14,32 -18,52 -4,21 -6,45 -6,71 0,58 8,101 23,129 16,28 41,43 76,43 18,0 33,-4 45,-11 13,-7 23,-18 31,-32 8,-14 14,-32 18,-52 4,-21 6,-45 6,-72z"/>
  <path id="12345678910111213141516171819202122232425262728293031323334353637383940414243444546474849505152535455565758596061626364" class="fil0" d="M5203 5023c0,31 -4,58 -12,82 -8,23 -20,43 -36,59 -16,16 -35,28 -57,36 -22,8 -47,12 -75,12 -31,0 -58,-4 -81,-12 -22,-8 -40,-19 -54,-34 -14,-15 -24,-33 -30,-54 -6,-21 -9,-45 -9,-72l0 -323 92 0 0 318c0,16 1,31 4,44 3,13 8,23 15,32 7,9 16,16 27,20 11,4 24,7 40,7 15,0 28,-2 38,-6 10,-4 19,-10 26,-19 7,-9 12,-20 16,-33 4,-13 5,-30 5,-49l0 -314 92 0 0 308z"/>
  <path id="1234567891011121314151617181920212223242526272829303132333435363738394041424344454647484950515253545556575859606162636465" class="fil0" d="M5634 5203l-69 -157c-6,-15 -16,-26 -27,-34 -12,-8 -25,-11 -41,-11l-17 0 0 202 -92 0 0 -487 142 0c27,0 51,2 73,7 22,5 41,12 56,23 15,11 27,25 36,42 8,17 12,38 12,63 0,18 -3,34 -8,48 -5,14 -12,26 -22,36 -9,10 -21,18 -34,24 -13,6 -27,11 -43,13 12,2 23,9 33,20 10,11 20,27 30,48l78 163 -108 0zm-23 -344c0,-24 -8,-41 -23,-51 -15,-11 -38,-16 -68,-16l-40 0 0 138 37 0c14,0 27,-2 39,-5 12,-3 21,-7 30,-13 8,-6 15,-13 19,-22 4,-9 7,-19 7,-30z"/>
  <path id="123456789101112131415161718192021222324252627282930313233343536373839404142434445464748495051525354555657585960616263646566" class="fil0" d="M6182 5203l-27 -96 -170 0 -28 96 -91 0 144 -487 128 0 144 487 -101 0zm-111 -398l-64 227 128 0 -63 -227z"/>
  <polygon id="12345678910111213141516171819202122232425262728293031323334353637383940414243444546474849505152535455565758596061626364656667" class="fil0" points="6552,4793 6552,4928 6736,4928 6736,5003 6552,5003 6552,5203 6459,5203 6459,4715 6747,4715 6747,4793 "/>
  <polygon id="1234567891011121314151617181920212223242526272829303132333435363738394041424344454647484950515253545556575859606162636465666768" class="fil0" points="6971,4790 6971,4715 7279,4715 7279,4790 7172,4790 7172,5127 7279,5127 7279,5203 6971,5203 6971,5127 7078,5127 7078,4790 "/>
  <polygon id="123456789101112131415161718192021222324252627282930313233343536373839404142434445464748495051525354555657585960616263646566676869" class="fil0" points="7711,5203 7589,5203 7440,4715 7544,4715 7627,5009 7653,5105 7681,5003 7762,4715 7860,4715 "/>
  <polygon id="12345678910111213141516171819202122232425262728293031323334353637383940414243444546474849505152535455565758596061626364656667686970" class="fil0" points="8034,5203 8034,4715 8327,4715 8327,4793 8127,4793 8127,4914 8318,4914 8318,4990 8127,4990 8127,5125 8327,5125 8327,5203 "/>
  <path id="1234567891011121314151617181920212223242526272829303132333435363738394041424344454647484950515253545556575859606162636465666768697071" class="fil0" d="M995 5950c0,27 -5,50 -15,69 -10,20 -24,36 -41,49 -18,13 -39,22 -63,29 -24,6 -51,9 -80,9 -26,0 -50,-1 -74,-4 -24,-3 -47,-8 -71,-15l0 -91c11,4 23,8 36,11 12,3 25,6 38,9 12,3 25,5 37,6 12,2 25,2 36,2 17,0 32,-2 44,-4 12,-3 22,-7 30,-12 8,-5 13,-11 17,-19 4,-7 5,-15 5,-24 0,-12 -3,-22 -10,-30 -7,-8 -16,-15 -27,-21 -11,-6 -24,-12 -38,-17 -14,-5 -29,-10 -44,-16 -15,-6 -29,-12 -44,-19 -14,-7 -27,-16 -38,-27 -11,-11 -20,-23 -27,-38 -7,-15 -10,-33 -10,-53 0,-19 4,-37 10,-54 7,-17 18,-32 33,-45 15,-13 34,-23 57,-31 23,-8 52,-11 85,-11 10,0 20,1 30,1 11,1 21,2 31,3 10,1 20,3 30,5 10,2 18,4 26,6l0 84c-8,-3 -17,-6 -26,-8 -9,-2 -19,-5 -29,-6 -10,-2 -20,-3 -30,-4 -10,-1 -20,-1 -29,-1 -16,0 -30,1 -41,4 -11,3 -20,6 -28,11 -7,5 -12,10 -16,17 -3,7 -5,14 -5,22 0,10 3,19 10,26 7,7 16,14 27,20 11,6 24,11 38,16 14,5 29,11 44,16 15,6 30,12 44,20 14,7 27,17 38,27 11,11 20,23 27,38 7,15 10,32 10,52z"/>
  <polygon id="123456789101112131415161718192021222324252627282930313233343536373839404142434445464748495051525354555657585960616263646566676869707172" class="fil0" points="1196,5685 1196,5610 1504,5610 1504,5685 1397,5685 1397,6022 1504,6022 1504,6097 1196,6097 1196,6022 1303,6022 1303,5685 "/>
  <polygon id="12345678910111213141516171819202122232425262728293031323334353637383940414243444546474849505152535455565758596061626364656667686970717273" class="fil0" points="1965,6097 1871,5918 1779,6097 1668,6097 1809,5847 1677,5610 1785,5610 1873,5780 1959,5610 2067,5610 1936,5847 2082,6097 "/>
  <polygon id="1234567891011121314151617181920212223242526272829303132333435363738394041424344454647484950515253545556575859606162636465666768697071727374" class="fil0" points="2263,6097 2263,5610 2357,5610 2357,6019 2563,6019 2563,6097 "/>
  <path id="123456789101112131415161718192021222324252627282930313233343536373839404142434445464748495051525354555657585960616263646566676869707172737475" class="fil0" d="M3095 5950c0,27 -5,50 -15,69 -10,20 -24,36 -41,49 -18,13 -39,22 -63,29 -24,6 -51,9 -80,9 -26,0 -50,-1 -74,-4 -24,-3 -47,-8 -71,-15l0 -91c11,4 23,8 36,11 12,3 25,6 38,9 12,3 25,5 37,6 12,2 25,2 36,2 17,0 32,-2 44,-4 12,-3 22,-7 30,-12 8,-5 13,-11 17,-19 4,-7 5,-15 5,-24 0,-12 -3,-22 -10,-30 -7,-8 -16,-15 -27,-21 -11,-6 -24,-12 -38,-17 -14,-5 -29,-10 -44,-16 -15,-6 -29,-12 -44,-19 -14,-7 -27,-16 -38,-27 -11,-11 -20,-23 -27,-38 -7,-15 -10,-33 -10,-53 0,-19 4,-37 10,-54 7,-17 18,-32 33,-45 15,-13 34,-23 57,-31 23,-8 52,-11 85,-11 10,0 20,1 30,1 11,1 21,2 31,3 10,1 20,3 30,5 10,2 18,4 26,6l0 84c-8,-3 -17,-6 -26,-8 -9,-2 -19,-5 -29,-6 -10,-2 -20,-3 -30,-4 -10,-1 -20,-1 -29,-1 -16,0 -30,1 -41,4 -11,3 -20,6 -28,11 -7,5 -12,10 -16,17 -3,7 -5,14 -5,22 0,10 3,19 10,26 7,7 16,14 27,20 11,6 24,11 38,16 14,5 29,11 44,16 15,6 30,12 44,20 14,7 27,17 38,27 11,11 20,23 27,38 7,15 10,32 10,52z"/>
  <polygon id="12345678910111213141516171819202122232425262728293031323334353637383940414243444546474849505152535455565758596061626364656667686970717273747576" class="fil0" points="3309,6097 3309,5610 3602,5610 3602,5687 3402,5687 3402,5809 3593,5809 3593,5884 3402,5884 3402,6020 3602,6020 3602,6097 "/>
  <polygon id="1234567891011121314151617181920212223242526272829303132333435363738394041424344454647484950515253545556575859606162636465666768697071727374757677" class="fil0" points="4035,6097 3914,6097 3765,5610 3869,5610 3951,5903 3978,6000 4006,5898 4087,5610 4185,5610 "/>
  <polygon id="123456789101112131415161718192021222324252627282930313233343536373839404142434445464748495051525354555657585960616263646566676869707172737475767778" class="fil0" points="4359,6097 4359,5610 4652,5610 4652,5687 4452,5687 4452,5809 4643,5809 4643,5884 4452,5884 4452,6020 4652,6020 4652,6097 "/>
  <polygon id="12345678910111213141516171819202122232425262728293031323334353637383940414243444546474849505152535455565758596061626364656667686970717273747576777879" class="fil0" points="5091,6097 4961,5806 4934,5744 4934,5946 4934,6097 4850,6097 4850,5610 4963,5610 5096,5903 5119,5960 5119,5745 5119,5610 5203,5610 5203,6097 "/>
  <path id="1234567891011121314151617181920212223242526272829303132333435363738394041424344454647484950515253545556575859606162636465666768697071727374757677787980" class="fil0" d="M5746 5851c0,44 -5,83 -15,115 -10,32 -25,58 -43,79 -18,21 -39,36 -63,46 -24,10 -50,15 -78,15 -64,0 -112,-21 -145,-64 -32,-43 -49,-105 -49,-186 0,-44 5,-82 16,-114 10,-32 24,-58 43,-79 18,-21 39,-36 63,-46 24,-10 50,-15 78,-15 64,0 112,21 145,64 32,43 48,105 48,186zm-97 4c0,-58 -8,-101 -23,-129 -15,-28 -41,-43 -76,-43 -18,0 -33,4 -45,11 -12,7 -23,18 -31,32 -8,14 -14,32 -18,52 -4,21 -6,45 -6,71 0,58 8,101 23,129 16,28 41,43 76,43 18,0 33,-4 45,-11 13,-7 23,-18 31,-32 8,-14 14,-32 18,-52 4,-21 6,-45 6,-72z"/>
  <polygon id="123456789101112131415161718192021222324252627282930313233343536373839404142434445464748495051525354555657585960616263646566676869707172737475767778798081" class="fil0" points="5934,6097 5934,5610 6227,5610 6227,5687 6027,5687 6027,5809 6218,5809 6218,5884 6027,5884 6027,6020 6227,6020 6227,6097 "/>
  <polygon id="12345678910111213141516171819202122232425262728293031323334353637383940414243444546474849505152535455565758596061626364656667686970717273747576777879808182" class="fil0" points="6446,5685 6446,5610 6754,5610 6754,5685 6647,5685 6647,6022 6754,6022 6754,6097 6446,6097 6446,6022 6553,6022 6553,5685 "/>
  <path id="1234567891011121314151617181920212223242526272829303132333435363738394041424344454647484950515253545556575859606162636465666768697071727374757677787980818283" class="fil0" d="M7127 5891l0 -76 173 0 0 260c-22,10 -46,18 -70,23 -24,5 -51,7 -79,7 -34,0 -64,-5 -91,-16 -27,-10 -50,-26 -69,-47 -19,-21 -33,-46 -44,-77 -10,-31 -15,-66 -15,-106 0,-41 5,-77 16,-109 11,-32 26,-59 46,-81 20,-22 45,-39 75,-51 30,-12 63,-18 101,-18 22,0 44,2 65,6 21,4 43,9 64,15l0 91c-18,-9 -39,-16 -61,-21 -22,-6 -45,-8 -67,-8 -23,0 -43,4 -61,12 -18,8 -32,19 -44,34 -12,15 -21,33 -27,54 -6,21 -9,46 -9,72 0,26 2,49 7,70 5,21 12,38 23,53 11,15 24,26 41,33 17,8 37,12 61,12 6,0 11,0 15,-1 4,0 8,-1 12,-2 4,-1 7,-2 11,-3 3,-1 7,-2 11,-3l0 -125 -83 0z"/>
  <polygon id="123456789101112131415161718192021222324252627282930313233343536373839404142434445464748495051525354555657585960616263646566676869707172737475767778798081828384" class="fil0" points="7733,6097 7733,5885 7567,5885 7567,6097 7475,6097 7475,5610 7567,5610 7567,5806 7733,5806 7733,5610 7825,5610 7825,6097 "/>
  <polygon id="12345678910111213141516171819202122232425262728293031323334353637383940414243444546474849505152535455565758596061626364656667686970717273747576777879808182838485" class="fil0" points="8222,5686 8222,6097 8128,6097 8128,5686 7995,5686 7995,5610 8356,5610 8356,5686 "/>
  <polygon id="1234567891011121314151617181920212223242526272829303132333435363738394041424344454647484950515253545556575859606162636465666768697071727374757677787980818283848586" class="fil0" points="891,6992 760,6701 734,6638 734,6840 734,6992 650,6992 650,6504 763,6504 896,6797 919,6854 919,6639 919,6504 1003,6504 1003,6992 "/>
  <polygon id="123456789101112131415161718192021222324252627282930313233343536373839404142434445464748495051525354555657585960616263646566676869707172737475767778798081828384858687" class="fil0" points="1196,6579 1196,6504 1504,6504 1504,6579 1397,6579 1397,6916 1504,6916 1504,6992 1196,6992 1196,6916 1303,6916 1303,6579 "/>
  <polygon id="12345678910111213141516171819202122232425262728293031323334353637383940414243444546474849505152535455565758596061626364656667686970717273747576777879808182838485868788" class="fil0" points="1941,6992 1810,6701 1784,6638 1784,6840 1784,6992 1700,6992 1700,6504 1813,6504 1946,6797 1969,6854 1969,6639 1969,6504 2053,6504 2053,6992 "/>
  <polygon id="1234567891011121314151617181920212223242526272829303132333435363738394041424344454647484950515253545556575859606162636465666768697071727374757677787980818283848586878889" class="fil0" points="2259,6992 2259,6504 2552,6504 2552,6582 2352,6582 2352,6703 2543,6703 2543,6779 2352,6779 2352,6914 2552,6914 2552,6992 "/>
  <polygon id="123456789101112131415161718192021222324252627282930313233343536373839404142434445464748495051525354555657585960616263646566676869707172737475767778798081828384858687888990" class="fil0" points="2985,6992 2864,6992 2715,6504 2819,6504 2901,6798 2928,6894 2956,6792 3037,6504 3135,6504 "/>
  <polygon id="12345678910111213141516171819202122232425262728293031323334353637383940414243444546474849505152535455565758596061626364656667686970717273747576777879808182838485868788899091" class="fil0" points="3497,6581 3497,6992 3403,6992 3403,6581 3269,6581 3269,6504 3630,6504 3630,6581 "/>
  <polygon id="1234567891011121314151617181920212223242526272829303132333435363738394041424344454647484950515253545556575859606162636465666768697071727374757677787980818283848586878889909192" class="fil0" points="3834,6992 3834,6504 4127,6504 4127,6582 3927,6582 3927,6703 4118,6703 4118,6779 3927,6779 3927,6914 4127,6914 4127,6992 "/>
  <polygon id="123456789101112131415161718192021222324252627282930313233343536373839404142434445464748495051525354555657585960616263646566676869707172737475767778798081828384858687888990919293" class="fil0" points="4566,6992 4436,6701 4409,6638 4409,6840 4409,6992 4325,6992 4325,6504 4438,6504 4571,6797 4594,6854 4594,6639 4594,6504 4678,6504 4678,6992 "/>
  <polygon id="12345678910111213141516171819202122232425262728293031323334353637383940414243444546474849505152535455565758596061626364656667686970717273747576777879808182838485868788899091929394" class="fil0" points="4884,6992 4884,6504 5177,6504 5177,6582 4977,6582 4977,6703 5168,6703 5168,6779 4977,6779 4977,6914 5177,6914 5177,6992 "/>
  <polygon id="1234567891011121314151617181920212223242526272829303132333435363738394041424344454647484950515253545556575859606162636465666768697071727374757677787980818283848586878889909192939495" class="fil0" points="5409,6992 5409,6504 5702,6504 5702,6582 5502,6582 5502,6703 5693,6703 5693,6779 5502,6779 5502,6914 5702,6914 5702,6992 "/>
  <polygon id="123456789101112131415161718192021222324252627282930313233343536373839404142434445464748495051525354555657585960616263646566676869707172737475767778798081828384858687888990919293949596" class="fil0" points="5938,6992 5938,6504 6032,6504 6032,6913 6238,6913 6238,6992 "/>
  <polygon id="12345678910111213141516171819202122232425262728293031323334353637383940414243444546474849505152535455565758596061626364656667686970717273747576777879808182838485868788899091929394959697" class="fil0" points="6459,6992 6459,6504 6752,6504 6752,6582 6552,6582 6552,6703 6743,6703 6743,6779 6552,6779 6552,6914 6752,6914 6752,6992 "/>
  <polygon id="1234567891011121314151617181920212223242526272829303132333435363738394041424344454647484950515253545556575859606162636465666768697071727374757677787980818283848586878889909192939495969798" class="fil0" points="7185,6992 7064,6992 6915,6504 7019,6504 7102,6798 7128,6894 7156,6792 7237,6504 7335,6504 "/>
  <polygon id="123456789101112131415161718192021222324252627282930313233343536373839404142434445464748495051525354555657585960616263646566676869707172737475767778798081828384858687888990919293949596979899" class="fil0" points="7509,6992 7509,6504 7802,6504 7802,6582 7602,6582 7602,6703 7793,6703 7793,6779 7602,6779 7602,6914 7802,6914 7802,6992 "/>
  <polygon id="123456789101112131415161718192021222324252627282930313233343536373839404142434445464748495051525354555657585960616263646566676869707172737475767778798081828384858687888990919293949596979899100" class="fil0" points="8241,6992 8111,6701 8084,6638 8084,6840 8084,6992 8000,6992 8000,6504 8113,6504 8246,6797 8270,6854 8270,6639 8270,6504 8353,6504 8353,6992 "/>
  <polygon id="123456789101112131415161718192021222324252627282930313233343536373839404142434445464748495051525354555657585960616263646566676869707172737475767778798081828384858687888990919293949596979899100101" class="fil0" points="1397,7475 1397,7886 1303,7886 1303,7475 1169,7475 1169,7399 1530,7399 1530,7475 "/>
  <polygon id="123456789101112131415161718192021222324252627282930313233343536373839404142434445464748495051525354555657585960616263646566676869707172737475767778798081828384858687888990919293949596979899100101102" class="fil0" points="2045,7886 1938,7886 1889,7736 1872,7675 1855,7737 1808,7886 1705,7886 1677,7399 1758,7399 1770,7711 1773,7797 1795,7721 1848,7547 1906,7547 1963,7731 1981,7796 1983,7720 1995,7399 2073,7399 "/>
  <polygon id="123456789101112131415161718192021222324252627282930313233343536373839404142434445464748495051525354555657585960616263646566676869707172737475767778798081828384858687888990919293949596979899100101102103" class="fil0" points="2259,7886 2259,7399 2552,7399 2552,7476 2352,7476 2352,7598 2543,7598 2543,7673 2352,7673 2352,7809 2552,7809 2552,7886 "/>
  <polygon id="123456789101112131415161718192021222324252627282930313233343536373839404142434445464748495051525354555657585960616263646566676869707172737475767778798081828384858687888990919293949596979899100101102103104" class="fil0" points="2788,7886 2788,7399 2882,7399 2882,7808 3088,7808 3088,7886 "/>
  <polygon id="123456789101112131415161718192021222324252627282930313233343536373839404142434445464748495051525354555657585960616263646566676869707172737475767778798081828384858687888990919293949596979899100101102103104105" class="fil0" points="3510,7886 3389,7886 3240,7399 3344,7399 3426,7692 3453,7789 3481,7687 3562,7399 3660,7399 "/>
  <polygon id="123456789101112131415161718192021222324252627282930313233343536373839404142434445464748495051525354555657585960616263646566676869707172737475767778798081828384858687888990919293949596979899100101102103104105106" class="fil0" points="3834,7886 3834,7399 4127,7399 4127,7476 3927,7476 3927,7598 4118,7598 4118,7673 3927,7673 3927,7809 4127,7809 4127,7886 "/>
  <path id="123456789101112131415161718192021222324252627282930313233343536373839404142434445464748495051525354555657585960616263646566676869707172737475767778798081828384858687888990919293949596979899100101102103104105106107" class="fil0" d="M4678 7707c0,31 -4,58 -12,82 -8,23 -20,43 -36,59 -16,16 -35,28 -57,36 -22,8 -47,12 -75,12 -31,0 -58,-4 -81,-12 -22,-8 -40,-19 -54,-34 -14,-15 -24,-33 -30,-54 -6,-21 -9,-45 -9,-72l0 -323 92 0 0 318c0,16 1,31 4,44 3,13 8,23 15,32 7,9 16,16 27,20 11,4 24,7 40,7 15,0 28,-2 38,-6 10,-4 19,-10 26,-19 7,-9 12,-20 16,-33 4,-13 5,-30 5,-49l0 -314 92 0 0 308z"/>
  <path id="123456789101112131415161718192021222324252627282930313233343536373839404142434445464748495051525354555657585960616263646566676869707172737475767778798081828384858687888990919293949596979899100101102103104105106107108" class="fil0" d="M5221 7640c0,44 -5,83 -15,115 -10,32 -25,58 -43,79 -18,21 -39,36 -63,46 -24,10 -50,15 -78,15 -64,0 -112,-21 -145,-64 -32,-43 -49,-105 -49,-186 0,-44 5,-82 16,-114 10,-32 24,-58 43,-79 18,-21 39,-36 63,-46 24,-10 50,-15 78,-15 64,0 112,21 145,64 32,43 48,105 48,186zm-97 4c0,-58 -8,-101 -23,-129 -15,-28 -41,-43 -76,-43 -18,0 -33,4 -45,11 -12,7 -23,18 -31,32 -8,14 -14,32 -18,52 -4,21 -6,45 -6,71 0,58 8,101 23,129 16,28 41,43 76,43 18,0 33,-4 45,-11 13,-7 23,-18 31,-32 8,-14 14,-32 18,-52 4,-21 6,-45 6,-72z"/>
  <path id="123456789101112131415161718192021222324252627282930313233343536373839404142434445464748495051525354555657585960616263646566676869707172737475767778798081828384858687888990919293949596979899100101102103104105106107108109" class="fil0" d="M5714 7867c-22,9 -43,15 -63,19 -20,4 -41,6 -63,6 -35,0 -66,-5 -93,-16 -27,-10 -50,-26 -68,-46 -18,-20 -33,-46 -42,-76 -10,-30 -14,-65 -14,-105 0,-41 5,-77 16,-109 10,-32 25,-59 45,-81 19,-22 43,-39 71,-50 28,-11 59,-17 93,-17 11,0 22,0 31,1 10,1 19,1 29,3 9,1 19,3 29,5 10,2 20,5 30,9l0 91c-21,-10 -41,-17 -60,-21 -19,-4 -37,-6 -52,-6 -23,0 -43,4 -59,12 -16,8 -30,20 -40,35 -11,15 -18,33 -23,54 -5,21 -8,44 -8,68 0,26 3,50 8,71 5,21 13,38 24,53 11,14 24,25 41,33 17,8 36,11 59,11 8,0 17,-1 27,-2 10,-2 19,-4 29,-6 10,-3 20,-6 29,-9 10,-4 18,-7 27,-11l0 86z"/>
  <polygon id="123456789101112131415161718192021222324252627282930313233343536373839404142434445464748495051525354555657585960616263646566676869707172737475767778798081828384858687888990919293949596979899100101102103104105106107108109110" class="fil0" points="5938,7886 5938,7399 6032,7399 6032,7808 6238,7808 6238,7886 "/>
  <path id="123456789101112131415161718192021222324252627282930313233343536373839404142434445464748495051525354555657585960616263646566676869707172737475767778798081828384858687888990919293949596979899100101102103104105106107108109110111" class="fil0" d="M6796 7640c0,44 -5,83 -15,115 -10,32 -25,58 -43,79 -18,21 -39,36 -63,46 -24,10 -50,15 -78,15 -64,0 -112,-21 -145,-64 -32,-43 -49,-105 -49,-186 0,-44 5,-82 16,-114 10,-32 24,-58 43,-79 18,-21 39,-36 63,-46 24,-10 50,-15 78,-15 64,0 112,21 145,64 32,43 48,105 48,186zm-97 4c0,-58 -8,-101 -23,-129 -15,-28 -41,-43 -76,-43 -18,0 -33,4 -45,11 -12,7 -23,18 -31,32 -8,14 -14,32 -18,52 -4,21 -6,45 -6,71 0,58 8,101 23,129 16,28 41,43 76,43 18,0 33,-4 45,-11 13,-7 23,-18 31,-32 8,-14 14,-32 18,-52 4,-21 6,-45 6,-72z"/>
  <path id="123456789101112131415161718192021222324252627282930313233343536373839404142434445464748495051525354555657585960616263646566676869707172737475767778798081828384858687888990919293949596979899100101102103104105106107108109110111112" class="fil0" d="M7290 7867c-22,9 -43,15 -63,19 -20,4 -41,6 -63,6 -35,0 -66,-5 -93,-16 -27,-10 -50,-26 -68,-46 -18,-20 -33,-46 -42,-76 -10,-30 -14,-65 -14,-105 0,-41 5,-77 16,-109 10,-32 25,-59 45,-81 19,-22 43,-39 71,-50 28,-11 59,-17 93,-17 11,0 22,0 31,1 10,1 19,1 29,3 9,1 19,3 29,5 10,2 20,5 30,9l0 91c-21,-10 -41,-17 -60,-21 -19,-4 -37,-6 -52,-6 -23,0 -43,4 -59,12 -16,8 -30,20 -40,35 -11,15 -18,33 -23,54 -5,21 -8,44 -8,68 0,26 3,50 8,71 5,21 13,38 24,53 11,14 24,25 41,33 17,8 36,11 59,11 8,0 17,-1 27,-2 10,-2 19,-4 29,-6 10,-3 20,-6 29,-9 10,-4 18,-7 27,-11l0 86z"/>
  <polygon id="123456789101112131415161718192021222324252627282930313233343536373839404142434445464748495051525354555657585960616263646566676869707172737475767778798081828384858687888990919293949596979899100101102103104105106107108109110111112113" class="fil0" points="7728,7886 7581,7651 7581,7886 7488,7886 7488,7399 7581,7399 7581,7621 7727,7399 7838,7399 7672,7631 7847,7886 "/>
 </g>
</svg>
